<?xml version="1.0" standalone="yes"?>

<svg version="1.1" viewBox="0.0 0.0 957.8818897637796 284.2283464566929" fill="none" stroke="none" stroke-linecap="square" stroke-miterlimit="10" xmlns="http://www.w3.org/2000/svg" xmlns:xlink="http://www.w3.org/1999/xlink"><clipPath id="p.0"><path d="m0 0l957.8819 0l0 284.22833l-957.8819 0l0 -284.22833z" clip-rule="nonzero"></path></clipPath><g clip-path="url(#p.0)"><path fill="#000000" fill-opacity="0.0" d="m0 0l957.8819 0l0 284.22833l-957.8819 0z" fill-rule="nonzero"></path><path fill="#000000" fill-opacity="0.0" d="m-0.7532808 71.031494l277.82678 0l0 124.25197l-277.82678 0z" fill-rule="nonzero"></path><path fill="#000000" d="m16.074844 134.74936l0 -1.609375l5.765625 0l0 5.046875q-1.328125 1.0625 -2.75 1.59375q-1.40625 0.53125 -2.890625 0.53125q-2.0 0 -3.640625 -0.859375q-1.625 -0.859375 -2.46875 -2.484375q-0.828125 -1.625 -0.828125 -3.625q0 -1.984375 0.828125 -3.703125q0.828125 -1.7187576 2.390625 -2.5468826q1.5625 -0.84375 3.59375 -0.84375q1.46875 0 2.65625 0.484375q1.203125 0.46875 1.875 1.3281326q0.671875 0.84375 1.03125 2.21875l-1.625 0.4375q-0.3125 -1.03125 -0.765625 -1.625q-0.453125 -0.59375 -1.296875 -0.953125q-0.84375 -0.35938263 -1.875 -0.35938263q-1.234375 0 -2.140625 0.37500763q-0.890625 0.375 -1.453125 1.0q-0.546875 0.609375 -0.84375 1.34375q-0.53125 1.25 -0.53125 2.734375q0 1.8125 0.625 3.046875q0.640625 1.21875 1.828125 1.8125q1.203125 0.59375 2.546875 0.59375q1.171875 0 2.28125 -0.453125q1.109375 -0.453125 1.6875 -0.953125l0 -2.53125l-4.0 0zm14.683304 2.15625l1.71875 0.21875q-0.40625 1.5 -1.515625 2.34375q-1.09375 0.828125 -2.8125 0.828125q-2.15625 0 -3.421875 -1.328125q-1.265625 -1.328125 -1.265625 -3.734375q0 -2.484375 1.265625 -3.859375q1.28125 -1.375 3.328125 -1.375q1.984375 0 3.234375 1.34375q1.25 1.34375 1.25 3.796875q0 0.140625 -0.015625 0.4375l-7.34375 0q0.09375 1.625 0.921875 2.484375q0.828125 0.859375 2.0625 0.859375q0.90625 0 1.546875 -0.46875q0.65625 -0.484375 1.046875 -1.546875zm-5.484375 -2.703125l5.5 0q-0.109375 -1.234375 -0.625 -1.859375q-0.796875 -0.96875 -2.078125 -0.96875q-1.140625 0 -1.9375 0.78125q-0.78125 0.765625 -0.859375 2.046875zm12.766342 4.375l0.234375 1.484375q-0.703125 0.140625 -1.265625 0.140625q-0.90625 0 -1.40625 -0.28125q-0.5 -0.296875 -0.703125 -0.75q-0.203125 -0.46875 -0.203125 -1.984375l0 -5.65625l-1.234375 0l0 -1.3125l1.234375 0l0 -2.4375076l1.65625 -1.0l0 3.4375076l1.6875 0l0 1.3125l-1.6875 0l0 5.75q0 0.71875 0.078125 0.921875q0.09375 0.203125 0.296875 0.328125q0.203125 0.125 0.578125 0.125q0.265625 0 0.734375 -0.078125zm13.147858 0.28125q-0.9375 0.796875 -1.796875 1.125q-0.859375 0.3125 -1.84375 0.3125q-1.609375 0 -2.484375 -0.78125q-0.875 -0.796875 -0.875 -2.03125q0 -0.734375 0.328125 -1.328125q0.328125 -0.59375 0.859375 -0.953125q0.53125 -0.359375 1.203125 -0.546875q0.5 -0.140625 1.484375 -0.25q2.03125 -0.25 2.984375 -0.578125q0 -0.34375 0 -0.4375q0 -1.015625 -0.46875 -1.4375q-0.640625 -0.5625 -1.90625 -0.5625q-1.171875 0 -1.734375 0.40625q-0.5625 0.40625 -0.828125 1.46875l-1.640625 -0.234375q0.234375 -1.046875 0.734375 -1.6875q0.515625 -0.640625 1.46875 -0.984375q0.96875 -0.359375 2.25 -0.359375q1.265625 0 2.046875 0.296875q0.78125 0.296875 1.15625 0.75q0.375 0.453125 0.515625 1.140625q0.09375 0.421875 0.09375 1.53125l0 2.234375q0 2.328125 0.09375 2.953125q0.109375 0.609375 0.4375 1.171875l-1.75 0q-0.265625 -0.515625 -0.328125 -1.21875zm-0.140625 -3.71875q-0.90625 0.359375 -2.734375 0.625q-1.03125 0.140625 -1.453125 0.328125q-0.421875 0.1875 -0.65625 0.546875q-0.234375 0.359375 -0.234375 0.796875q0 0.671875 0.5 1.125q0.515625 0.4375 1.484375 0.4375q0.96875 0 1.71875 -0.421875q0.75 -0.4375 1.109375 -1.15625q0.265625 -0.578125 0.265625 -1.671875l0 -0.609375zm4.047592 4.9375l0 -13.593758l1.671875 0l0 13.593758l-1.671875 0zm4.144821 0l0 -13.593758l1.671875 0l0 13.593758l-1.671875 0zm9.375 -11.6875l0 -1.9062576l1.671875 0l0 1.9062576l-1.671875 0zm0 11.6875l0 -9.859375l1.671875 0l0 9.859375l-1.671875 0zm4.129196 0l0 -9.859375l1.5 0l0 1.390625q0.453125 -0.71875 1.21875 -1.15625q0.78125 -0.453125 1.765625 -0.453125q1.09375 0 1.796875 0.453125q0.703125 0.453125 0.984375 1.28125q1.171875 -1.734375 3.046875 -1.734375q1.46875 0 2.25 0.8125q0.796875 0.8125 0.796875 2.5l0 6.765625l-1.671875 0l0 -6.203125q0 -1.0 -0.15625 -1.4375q-0.15625 -0.453125 -0.59375 -0.71875q-0.421875 -0.265625 -1.0 -0.265625q-1.03125 0 -1.71875 0.6875q-0.6875 0.6875 -0.6875 2.21875l0 5.71875l-1.671875 0l0 -6.40625q0 -1.109375 -0.40625 -1.65625q-0.40625 -0.5625 -1.34375 -0.5625q-0.703125 0 -1.3125 0.375q-0.59375 0.359375 -0.859375 1.078125q-0.265625 0.71875 -0.265625 2.0625l0 5.109375l-1.671875 0zm15.540802 0l0 -9.859375l1.5 0l0 1.390625q0.453125 -0.71875 1.21875 -1.15625q0.78125 -0.453125 1.765625 -0.453125q1.09375 0 1.796875 0.453125q0.703125 0.453125 0.984375 1.28125q1.171875 -1.734375 3.046875 -1.734375q1.46875 0 2.25 0.8125q0.796875 0.8125 0.796875 2.5l0 6.765625l-1.671875 0l0 -6.203125q0 -1.0 -0.15625 -1.4375q-0.15625 -0.453125 -0.59375 -0.71875q-0.421875 -0.265625 -1.0 -0.265625q-1.03125 0 -1.71875 0.6875q-0.6875 0.6875 -0.6875 2.21875l0 5.71875l-1.671875 0l0 -6.40625q0 -1.109375 -0.40625 -1.65625q-0.40625 -0.5625 -1.34375 -0.5625q-0.703125 0 -1.3125 0.375q-0.59375 0.359375 -0.859375 1.078125q-0.265625 0.71875 -0.265625 2.0625l0 5.109375l-1.671875 0zm22.290802 -3.171875l1.71875 0.21875q-0.40625 1.5 -1.515625 2.34375q-1.09375 0.828125 -2.8125 0.828125q-2.15625 0 -3.421875 -1.328125q-1.265625 -1.328125 -1.265625 -3.734375q0 -2.484375 1.265625 -3.859375q1.28125 -1.375 3.328125 -1.375q1.984375 0 3.234375 1.34375q1.25 1.34375 1.25 3.796875q0 0.140625 -0.015625 0.4375l-7.34375 0q0.09375 1.625 0.921875 2.484375q0.828125 0.859375 2.0625 0.859375q0.90625 0 1.546875 -0.46875q0.65625 -0.484375 1.046875 -1.546875zm-5.484375 -2.703125l5.5 0q-0.109375 -1.234375 -0.625 -1.859375q-0.796875 -0.96875 -2.078125 -0.96875q-1.140625 0 -1.9375 0.78125q-0.78125 0.765625 -0.859375 2.046875zm15.500717 5.875l0 -1.25q-0.9375 1.46875 -2.75 1.46875q-1.171875 0 -2.171875 -0.640625q-0.984375 -0.65625 -1.53125 -1.8125q-0.53125 -1.171875 -0.53125 -2.6875q0 -1.46875 0.484375 -2.671875q0.5 -1.203125 1.46875 -1.84375q0.984375 -0.640625 2.203125 -0.640625q0.890625 0 1.578125 0.375q0.703125 0.375 1.140625 0.984375l0 -4.8750076l1.65625 0l0 13.593758l-1.546875 0zm-5.28125 -4.921875q0 1.890625 0.796875 2.828125q0.8125 0.9375 1.890625 0.9375q1.09375 0 1.859375 -0.890625q0.765625 -0.890625 0.765625 -2.734375q0 -2.015625 -0.78125 -2.953125q-0.78125 -0.953125 -1.921875 -0.953125q-1.109375 0 -1.859375 0.90625q-0.75 0.90625 -0.75 2.859375zm9.281967 -6.765625l0 -1.9062576l1.671875 0l0 1.9062576l-1.671875 0zm0 11.6875l0 -9.859375l1.671875 0l0 9.859375l-1.671875 0zm10.566696 -1.21875q-0.9375 0.796875 -1.796875 1.125q-0.859375 0.3125 -1.84375 0.3125q-1.609375 0 -2.484375 -0.78125q-0.875 -0.796875 -0.875 -2.03125q0 -0.734375 0.328125 -1.328125q0.328125 -0.59375 0.859375 -0.953125q0.53125 -0.359375 1.203125 -0.546875q0.5 -0.140625 1.484375 -0.25q2.03125 -0.25 2.984375 -0.578125q0 -0.34375 0 -0.4375q0 -1.015625 -0.46875 -1.4375q-0.640625 -0.5625 -1.90625 -0.5625q-1.171875 0 -1.734375 0.40625q-0.5625 0.40625 -0.828125 1.46875l-1.640625 -0.234375q0.234375 -1.046875 0.734375 -1.6875q0.515625 -0.640625 1.46875 -0.984375q0.96875 -0.359375 2.25 -0.359375q1.265625 0 2.046875 0.296875q0.78125 0.296875 1.15625 0.75q0.375 0.453125 0.515625 1.140625q0.09375 0.421875 0.09375 1.53125l0 2.234375q0 2.328125 0.09375 2.953125q0.109375 0.609375 0.4375 1.171875l-1.75 0q-0.265625 -0.515625 -0.328125 -1.21875zm-0.140625 -3.71875q-0.90625 0.359375 -2.734375 0.625q-1.03125 0.140625 -1.453125 0.328125q-0.421875 0.1875 -0.65625 0.546875q-0.234375 0.359375 -0.234375 0.796875q0 0.671875 0.5 1.125q0.515625 0.4375 1.484375 0.4375q0.96875 0 1.71875 -0.421875q0.75 -0.4375 1.109375 -1.15625q0.265625 -0.578125 0.265625 -1.671875l0 -0.609375zm7.735092 3.4375l0.234375 1.484375q-0.703125 0.140625 -1.265625 0.140625q-0.90625 0 -1.40625 -0.28125q-0.5 -0.296875 -0.703125 -0.75q-0.203125 -0.46875 -0.203125 -1.984375l0 -5.65625l-1.234375 0l0 -1.3125l1.234375 0l0 -2.4375076l1.65625 -1.0l0 3.4375076l1.6875 0l0 1.3125l-1.6875 0l0 5.75q0 0.71875 0.078125 0.921875q0.09375 0.203125 0.296875 0.328125q0.203125 0.125 0.578125 0.125q0.265625 0 0.734375 -0.078125zm8.277054 -1.671875l1.71875 0.21875q-0.40625 1.5 -1.515625 2.34375q-1.09375 0.828125 -2.8125 0.828125q-2.15625 0 -3.421875 -1.328125q-1.265625 -1.328125 -1.265625 -3.734375q0 -2.484375 1.265625 -3.859375q1.28125 -1.375 3.328125 -1.375q1.984375 0 3.234375 1.34375q1.25 1.34375 1.25 3.796875q0 0.140625 -0.015625 0.4375l-7.34375 0q0.09375 1.625 0.921875 2.484375q0.828125 0.859375 2.0625 0.859375q0.90625 0 1.546875 -0.46875q0.65625 -0.484375 1.046875 -1.546875zm-5.484375 -2.703125l5.5 0q-0.109375 -1.234375 -0.625 -1.859375q-0.796875 -0.96875 -2.078125 -0.96875q-1.140625 0 -1.9375 0.78125q-0.78125 0.765625 -0.859375 2.046875zm20.684021 5.875l0 -1.25q-0.9375 1.46875 -2.75 1.46875q-1.171875 0 -2.171875 -0.640625q-0.984375 -0.65625 -1.53125 -1.8125q-0.53125 -1.171875 -0.53125 -2.6875q0 -1.46875 0.484375 -2.671875q0.5 -1.203125 1.46875 -1.84375q0.984375 -0.640625 2.203125 -0.640625q0.890625 0 1.578125 0.375q0.703125 0.375 1.140625 0.984375l0 -4.8750076l1.65625 0l0 13.593758l-1.546875 0zm-5.28125 -4.921875q0 1.890625 0.796875 2.828125q0.8125 0.9375 1.890625 0.9375q1.09375 0 1.859375 -0.890625q0.765625 -0.890625 0.765625 -2.734375q0 -2.015625 -0.78125 -2.953125q-0.78125 -0.953125 -1.921875 -0.953125q-1.109375 0 -1.859375 0.90625q-0.75 0.90625 -0.75 2.859375zm16.016342 1.75l1.71875 0.21875q-0.40625 1.5 -1.515625 2.34375q-1.09375 0.828125 -2.8125 0.828125q-2.15625 0 -3.421875 -1.328125q-1.265625 -1.328125 -1.265625 -3.734375q0 -2.484375 1.265625 -3.859375q1.28125 -1.375 3.328125 -1.375q1.984375 0 3.234375 1.34375q1.25 1.34375 1.25 3.796875q0 0.140625 -0.015625 0.4375l-7.34375 0q0.09375 1.625 0.921875 2.484375q0.828125 0.859375 2.0625 0.859375q0.90625 0 1.546875 -0.46875q0.65625 -0.484375 1.046875 -1.546875zm-5.484375 -2.703125l5.5 0q-0.109375 -1.234375 -0.625 -1.859375q-0.796875 -0.96875 -2.078125 -0.96875q-1.140625 0 -1.9375 0.78125q-0.78125 0.765625 -0.859375 2.046875zm9.110092 9.65625l0 -13.640625l1.53125 0l0 1.28125q0.53125 -0.75 1.203125 -1.125q0.6875 -0.375 1.640625 -0.375q1.265625 0 2.234375 0.65625q0.96875 0.640625 1.453125 1.828125q0.5 1.1875 0.5 2.59375q0 1.515625 -0.546875 2.734375q-0.546875 1.203125 -1.578125 1.84375q-1.03125 0.640625 -2.171875 0.640625q-0.84375 0 -1.515625 -0.34375q-0.65625 -0.359375 -1.078125 -0.890625l0 4.796875l-1.671875 0zm1.515625 -8.65625q0 1.90625 0.765625 2.8125q0.78125 0.90625 1.875 0.90625q1.109375 0 1.890625 -0.9375q0.796875 -0.9375 0.796875 -2.921875q0 -1.875 -0.78125 -2.8125q-0.765625 -0.9375 -1.84375 -0.9375q-1.0625 0 -1.890625 1.0q-0.8125 1.0 -0.8125 2.890625zm15.610092 1.703125l1.71875 0.21875q-0.40625 1.5 -1.515625 2.34375q-1.09375 0.828125 -2.8125 0.828125q-2.15625 0 -3.421875 -1.328125q-1.265625 -1.328125 -1.265625 -3.734375q0 -2.484375 1.265625 -3.859375q1.28125 -1.375 3.328125 -1.375q1.984375 0 3.234375 1.34375q1.25 1.34375 1.25 3.796875q0 0.140625 -0.015625 0.4375l-7.34375 0q0.09375 1.625 0.921875 2.484375q0.828125 0.859375 2.0625 0.859375q0.90625 0 1.546875 -0.46875q0.65625 -0.484375 1.046875 -1.546875zm-5.484375 -2.703125l5.5 0q-0.109375 -1.234375 -0.625 -1.859375q-0.796875 -0.96875 -2.078125 -0.96875q-1.140625 0 -1.9375 0.78125q-0.78125 0.765625 -0.859375 2.046875zm9.110092 5.875l0 -9.859375l1.5 0l0 1.40625q1.09375 -1.625 3.140625 -1.625q0.890625 0 1.640625 0.328125q0.75 0.3125 1.109375 0.84375q0.375 0.515625 0.53125 1.21875q0.09375 0.46875 0.09375 1.625l0 6.0625l-1.671875 0l0 -6.0q0 -1.015625 -0.203125 -1.515625q-0.1875 -0.515625 -0.6875 -0.8125q-0.5 -0.296875 -1.171875 -0.296875q-1.0625 0 -1.84375 0.671875q-0.765625 0.671875 -0.765625 2.578125l0 5.375l-1.671875 0zm16.766342 0l0 -1.25q-0.9375 1.46875 -2.75 1.46875q-1.171875 0 -2.171875 -0.640625q-0.984375 -0.65625 -1.53125 -1.8125q-0.53125 -1.171875 -0.53125 -2.6875q0 -1.46875 0.484375 -2.671875q0.5 -1.203125 1.46875 -1.84375q0.984375 -0.640625 2.203125 -0.640625q0.890625 0 1.578125 0.375q0.703125 0.375 1.140625 0.984375l0 -4.8750076l1.65625 0l0 13.593758l-1.546875 0zm-5.28125 -4.921875q0 1.890625 0.796875 2.828125q0.8125 0.9375 1.890625 0.9375q1.09375 0 1.859375 -0.890625q0.765625 -0.890625 0.765625 -2.734375q0 -2.015625 -0.78125 -2.953125q-0.78125 -0.953125 -1.921875 -0.953125q-1.109375 0 -1.859375 0.90625q-0.75 0.90625 -0.75 2.859375zm16.016342 1.75l1.71875 0.21875q-0.40625 1.5 -1.515625 2.34375q-1.09375 0.828125 -2.8125 0.828125q-2.15625 0 -3.421875 -1.328125q-1.265625 -1.328125 -1.265625 -3.734375q0 -2.484375 1.265625 -3.859375q1.28125 -1.375 3.328125 -1.375q1.984375 0 3.234375 1.34375q1.25 1.34375 1.25 3.796875q0 0.140625 -0.015625 0.4375l-7.34375 0q0.09375 1.625 0.921875 2.484375q0.828125 0.859375 2.0625 0.859375q0.90625 0 1.546875 -0.46875q0.65625 -0.484375 1.046875 -1.546875zm-5.484375 -2.703125l5.5 0q-0.109375 -1.234375 -0.625 -1.859375q-0.796875 -0.96875 -2.078125 -0.96875q-1.140625 0 -1.9375 0.78125q-0.78125 0.765625 -0.859375 2.046875zm9.110092 5.875l0 -9.859375l1.5 0l0 1.40625q1.09375 -1.625 3.140625 -1.625q0.890625 0 1.640625 0.328125q0.75 0.3125 1.109375 0.84375q0.375 0.515625 0.53125 1.21875q0.09375 0.46875 0.09375 1.625l0 6.0625l-1.671875 0l0 -6.0q0 -1.015625 -0.203125 -1.515625q-0.1875 -0.515625 -0.6875 -0.8125q-0.5 -0.296875 -1.171875 -0.296875q-1.0625 0 -1.84375 0.671875q-0.765625 0.671875 -0.765625 2.578125l0 5.375l-1.671875 0zm14.031967 -1.5l0.234375 1.484375q-0.703125 0.140625 -1.265625 0.140625q-0.90625 0 -1.40625 -0.28125q-0.5 -0.296875 -0.703125 -0.75q-0.203125 -0.46875 -0.203125 -1.984375l0 -5.65625l-1.234375 0l0 -1.3125l1.234375 0l0 -2.4375076l1.65625 -1.0l0 3.4375076l1.6875 0l0 1.3125l-1.6875 0l0 5.75q0 0.71875 0.078125 0.921875q0.09375 0.203125 0.296875 0.328125q0.203125 0.125 0.578125 0.125q0.265625 0 0.734375 -0.078125zm0.85517883 -1.4375l1.65625 -0.265625q0.140625 1.0 0.765625 1.53125q0.640625 0.515625 1.78125 0.515625q1.15625 0 1.703125 -0.46875q0.5625 -0.46875 0.5625 -1.09375q0 -0.5625 -0.484375 -0.890625q-0.34375 -0.21875 -1.703125 -0.5625q-1.84375 -0.46875 -2.5625 -0.796875q-0.703125 -0.34375 -1.078125 -0.9375q-0.359375 -0.609375 -0.359375 -1.328125q0 -0.65625 0.296875 -1.21875q0.3125 -0.5625 0.828125 -0.9375q0.390625 -0.28125 1.0625 -0.484375q0.671875 -0.203125 1.4375 -0.203125q1.171875 0 2.046875 0.34375q0.875 0.328125 1.28125 0.90625q0.421875 0.5625 0.578125 1.515625l-1.625 0.21875q-0.109375 -0.75 -0.65625 -1.171875q-0.53125 -0.4375 -1.5 -0.4375q-1.15625 0 -1.640625 0.390625q-0.484375 0.375 -0.484375 0.875q0 0.328125 0.203125 0.59375q0.203125 0.265625 0.640625 0.4375q0.25 0.09375 1.46875 0.4375q1.765625 0.46875 2.46875 0.765625q0.703125 0.296875 1.09375 0.875q0.40623474 0.578125 0.40623474 1.4375q0 0.828125 -0.48435974 1.578125q-0.484375 0.734375 -1.40625 1.140625q-0.921875 0.390625 -2.078125 0.390625q-1.921875 0 -2.9375 -0.796875q-1.0 -0.796875 -1.28125 -2.359375z" fill-rule="nonzero"></path><path fill="#000000" fill-opacity="0.0" d="m344.5355 80.4462l60.503937 0l0 40.15748l-60.503937 0z" fill-rule="nonzero"></path><path fill="#000000" d="m363.23862 110.95495q-1.171875 0.984375 -2.265625 1.40625q-1.078125 0.40625 -2.3125 0.40625q-2.046875 0 -3.15625 -1.0q-1.09375 -1.0 -1.09375 -2.5625q0 -0.921875 0.40625 -1.671875q0.421875 -0.75 1.09375 -1.203125q0.671875 -0.46875 1.515625 -0.703125q0.625 -0.15625 1.875 -0.3125q2.5625 -0.3125 3.765625 -0.734375q0.015625 -0.421875 0.015625 -0.546875q0 -1.28125 -0.609375 -1.8125q-0.796875 -0.71875 -2.390625 -0.71875q-1.5 0 -2.203125 0.53125q-0.703125 0.515625 -1.046875 1.84375l-2.0625 -0.28125q0.28125 -1.328125 0.921875 -2.140625q0.640625 -0.8125 1.859375 -1.25q1.21875 -0.453125 2.828125 -0.453125q1.59375 0 2.59375 0.375q1.0 0.375 1.46875 0.953125q0.46875 0.5625 0.65625 1.4375q0.09375 0.53125 0.09375 1.9375l0 2.8125q0 2.9375 0.140625 3.71875q0.140625 0.78125 0.53125 1.5l-2.203125 0q-0.328125 -0.65625 -0.421875 -1.53125zm-0.171875 -4.71875q-1.15625 0.46875 -3.453125 0.796875q-1.296875 0.1875 -1.84375 0.421875q-0.53125 0.234375 -0.828125 0.6875q-0.28125 0.453125 -0.28125 1.0q0 0.84375 0.625 1.40625q0.640625 0.5625 1.875 0.5625q1.21875 0 2.171875 -0.53125q0.953125 -0.53125 1.390625 -1.453125q0.34375 -0.71875 0.34375 -2.109375l0 -0.78125zm5.3945312 6.25l0 -12.453125l1.90625 0l0 1.78125q1.375 -2.0625 3.953125 -2.0625q1.125 0 2.0625 0.40625q0.953125 0.40625 1.421875 1.0625q0.46875 0.65625 0.65625 1.5625q0.125 0.578125 0.125 2.046875l0 7.65625l-2.109375 0l0 -7.578125q0 -1.28125 -0.25 -1.921875q-0.25 -0.640625 -0.875 -1.015625q-0.625 -0.390625 -1.46875 -0.390625q-1.34375 0 -2.328125 0.859375q-0.984375 0.859375 -0.984375 3.25l0 6.796875l-2.109375 0zm21.425781 0l0 -1.578125q-1.1875 1.859375 -3.484375 1.859375q-1.484375 0 -2.734375 -0.8125q-1.25 -0.828125 -1.9375 -2.296875q-0.671875 -1.46875 -0.671875 -3.390625q0 -1.859375 0.609375 -3.375q0.625 -1.515625 1.859375 -2.328125q1.25 -0.8125 2.78125 -0.8125q1.125 0 2.0 0.484375q0.890625 0.46875 1.4375 1.234375l0 -6.171875l2.09375 0l0 17.1875l-1.953125 0zm-6.671875 -6.21875q0 2.390625 1.0 3.578125q1.015625 1.1875 2.390625 1.1875q1.390625 0 2.34375 -1.125q0.96875 -1.140625 0.96875 -3.453125q0 -2.5625 -0.984375 -3.75q-0.984375 -1.203125 -2.421875 -1.203125q-1.40625 0 -2.359375 1.15625q-0.9375 1.140625 -0.9375 3.609375z" fill-rule="nonzero"></path><path fill="#000000" fill-opacity="0.0" d="m300.09317 80.444885l50.960632 0l0 40.15748l-50.960632 0z" fill-rule="nonzero"></path><path fill="#9900ff" d="m312.15552 112.484886l0 -17.1875l2.28125 0l0 7.0625l8.921875 0l0 -7.0625l2.28125 0l0 17.1875l-2.28125 0l0 -8.09375l-8.921875 0l0 8.09375l-2.28125 0zm25.519531 -4.015625l2.171875 0.28125q-0.515625 1.90625 -1.90625 2.96875q-1.390625 1.046875 -3.5625 1.046875q-2.734375 0 -4.34375 -1.671875q-1.59375 -1.6875 -1.59375 -4.734375q0 -3.140625 1.609375 -4.875q1.625 -1.734375 4.203125 -1.734375q2.5 0 4.078125 1.703125q1.59375 1.703125 1.59375 4.78125q0 0.1875 -0.015625 0.5625l-9.28125 0q0.109375 2.046875 1.15625 3.140625q1.046875 1.09375 2.609375 1.09375q1.15625 0 1.96875 -0.609375q0.828125 -0.609375 1.3125 -1.953125zm-6.9375 -3.40625l6.953125 0q-0.140625 -1.5625 -0.796875 -2.359375q-1.0 -1.21875 -2.609375 -1.21875q-1.453125 0 -2.453125 0.984375q-0.984375 0.96875 -1.09375 2.59375z" fill-rule="nonzero"></path><path fill="#000000" fill-opacity="0.0" d="m550.1381 80.4462l34.740112 0l0 40.15748l-34.740112 0z" fill-rule="nonzero"></path><path fill="#000000" d="m560.7319 97.7362l0 -2.4375l2.109375 0l0 2.4375l-2.109375 0zm0 14.75l0 -12.453125l2.109375 0l0 12.453125l-2.109375 0zm9.925781 -1.890625l0.3125 1.859375q-0.890625 0.203125 -1.59375 0.203125q-1.15625 0 -1.796875 -0.359375q-0.625 -0.375 -0.890625 -0.96875q-0.25 -0.59375 -0.25 -2.484375l0 -7.171875l-1.546875 0l0 -1.640625l1.546875 0l0 -3.078125l2.09375 -1.265625l0 4.34375l2.125 0l0 1.640625l-2.125 0l0 7.28125q0 0.90625 0.109375 1.171875q0.125 0.25 0.375 0.40625q0.25 0.140625 0.71875 0.140625q0.34375 0 0.921875 -0.078125z" fill-rule="nonzero"></path><path fill="#000000" fill-opacity="0.0" d="m664.2008 80.444885l75.968506 0l0 40.15748l-75.968506 0z" fill-rule="nonzero"></path><path fill="#9900ff" d="m677.0758 112.484886l-3.796875 -12.453125l2.171875 0l1.984375 7.1875l0.734375 2.671875q0.046875 -0.203125 0.640625 -2.5625l1.984375 -7.296875l2.171875 0l1.859375 7.21875l0.625 2.390625l0.71875 -2.40625l2.125 -7.203125l2.046875 0l-3.890625 12.453125l-2.1875 0l-1.984375 -7.453125l-0.46875 -2.125l-2.53125 9.578125l-2.203125 0zm23.566406 -4.015625l2.171875 0.28125q-0.515625 1.90625 -1.90625 2.96875q-1.390625 1.046875 -3.5625 1.046875q-2.734375 0 -4.34375 -1.671875q-1.59375 -1.6875 -1.59375 -4.734375q0 -3.140625 1.609375 -4.875q1.625 -1.734375 4.203125 -1.734375q2.5 0 4.078125 1.703125q1.59375 1.703125 1.59375 4.78125q0 0.1875 -0.015625 0.5625l-9.28125 0q0.109375 2.046875 1.15625 3.140625q1.046875 1.09375 2.609375 1.09375q1.15625 0 1.96875 -0.609375q0.828125 -0.609375 1.3125 -1.953125zm-6.9375 -3.40625l6.953125 0q-0.140625 -1.5625 -0.796875 -2.359375q-1.0 -1.21875 -2.609375 -1.21875q-1.453125 0 -2.453125 0.984375q-0.984375 0.96875 -1.09375 2.59375zm20.285156 3.40625l2.171875 0.28125q-0.515625 1.90625 -1.90625 2.96875q-1.390625 1.046875 -3.5625 1.046875q-2.734375 0 -4.34375 -1.671875q-1.59375 -1.6875 -1.59375 -4.734375q0 -3.140625 1.609375 -4.875q1.625 -1.734375 4.203125 -1.734375q2.5 0 4.078125 1.703125q1.59375 1.703125 1.59375 4.78125q0 0.1875 -0.015625 0.5625l-9.28125 0q0.109375 2.046875 1.15625 3.140625q1.046875 1.09375 2.609375 1.09375q1.15625 0 1.96875 -0.609375q0.828125 -0.609375 1.3125 -1.953125zm-6.9375 -3.40625l6.953125 0q-0.140625 -1.5625 -0.796875 -2.359375q-1.0 -1.21875 -2.609375 -1.21875q-1.453125 0 -2.453125 0.984375q-0.984375 0.96875 -1.09375 2.59375zm11.769531 7.421875l0 -17.1875l2.109375 0l0 9.796875l5.0 -5.0625l2.71875 0l-4.75 4.625l5.234375 7.828125l-2.59375 0l-4.125 -6.359375l-1.484375 1.421875l0 4.9375l-2.109375 0z" fill-rule="nonzero"></path><path fill="#000000" fill-opacity="0.0" d="m394.84778 80.4462l75.968506 0l0 40.15748l-75.968506 0z" fill-rule="nonzero"></path><path fill="#000000" d="m404.9259 106.97057l2.140625 -0.1875q0.15625 1.28125 0.703125 2.109375q0.5625 0.828125 1.734375 1.34375q1.171875 0.5 2.640625 0.5q1.296875 0 2.296875 -0.375q1.0 -0.390625 1.484375 -1.0625q0.484375 -0.6875 0.484375 -1.484375q0 -0.796875 -0.46875 -1.40625q-0.46875 -0.609375 -1.546875 -1.015625q-0.6875 -0.265625 -3.0625 -0.828125q-2.359375 -0.578125 -3.3125 -1.078125q-1.234375 -0.640625 -1.84375 -1.59375q-0.59375 -0.96875 -0.59375 -2.140625q0 -1.3125 0.734375 -2.4375q0.75 -1.125 2.15625 -1.703125q1.421875 -0.59375 3.15625 -0.59375q1.90625 0 3.359375 0.609375q1.46875 0.609375 2.25 1.8125q0.796875 1.1875 0.84375 2.703125l-2.171875 0.171875q-0.171875 -1.640625 -1.1875 -2.46875q-1.015625 -0.828125 -3.0 -0.828125q-2.0625 0 -3.015625 0.765625q-0.9375 0.75 -0.9375 1.8125q0 0.921875 0.671875 1.515625q0.65625 0.609375 3.421875 1.234375q2.78125 0.625 3.8125 1.09375q1.5 0.6875 2.203125 1.75q0.71875 1.0625 0.71875 2.4375q0 1.375 -0.78125 2.59375q-0.78125 1.203125 -2.25 1.890625q-1.46875 0.671875 -3.3125 0.671875q-2.328125 0 -3.90625 -0.671875q-1.578125 -0.6875 -2.484375 -2.046875q-0.890625 -1.375 -0.9375 -3.09375zm24.632812 3.984375q-1.171875 0.984375 -2.265625 1.40625q-1.078125 0.40625 -2.3125 0.40625q-2.046875 0 -3.15625 -1.0q-1.09375 -1.0 -1.09375 -2.5625q0 -0.921875 0.40625 -1.671875q0.421875 -0.75 1.09375 -1.203125q0.671875 -0.46875 1.515625 -0.703125q0.625 -0.15625 1.875 -0.3125q2.5625 -0.3125 3.765625 -0.734375q0.015625 -0.421875 0.015625 -0.546875q0 -1.28125 -0.609375 -1.8125q-0.796875 -0.71875 -2.390625 -0.71875q-1.5 0 -2.203125 0.53125q-0.703125 0.515625 -1.046875 1.84375l-2.0625 -0.28125q0.28125 -1.328125 0.921875 -2.140625q0.640625 -0.8125 1.859375 -1.25q1.21875 -0.453125 2.828125 -0.453125q1.59375 0 2.59375 0.375q1.0 0.375 1.46875 0.953125q0.46875 0.5625 0.65625 1.4375q0.09375 0.53125 0.09375 1.9375l0 2.8125q0 2.9375 0.140625 3.71875q0.140625 0.78125 0.53125 1.5l-2.203125 0q-0.328125 -0.65625 -0.421875 -1.53125zm-0.171875 -4.71875q-1.15625 0.46875 -3.453125 0.796875q-1.296875 0.1875 -1.84375 0.421875q-0.53125 0.234375 -0.828125 0.6875q-0.28125 0.453125 -0.28125 1.0q0 0.84375 0.625 1.40625q0.640625 0.5625 1.875 0.5625q1.21875 0 2.171875 -0.53125q0.953125 -0.53125 1.390625 -1.453125q0.34375 -0.71875 0.34375 -2.109375l0 -0.78125zm5.3476562 6.25l0 -17.1875l2.109375 0l0 17.1875l-2.109375 0zm5.3320312 0l0 -17.1875l2.109375 0l0 17.1875l-2.109375 0zm5.2851562 4.796875l-0.234375 -1.984375q0.703125 0.1875 1.21875 0.1875q0.703125 0 1.125 -0.234375q0.421875 -0.234375 0.6875 -0.65625q0.203125 -0.3125 0.640625 -1.5625q0.0625 -0.1875 0.1875 -0.515625l-4.71875 -12.484375l2.265625 0l2.59375 7.21875q0.5 1.359375 0.90625 2.875q0.359375 -1.453125 0.859375 -2.828125l2.671875 -7.265625l2.109375 0l-4.734375 12.671875q-0.765625 2.046875 -1.1875 2.8125q-0.5625 1.046875 -1.296875 1.53125q-0.71875 0.484375 -1.734375 0.484375q-0.609375 0 -1.359375 -0.25z" fill-rule="nonzero"></path><path fill="#000000" fill-opacity="0.0" d="m572.7743 80.4462l75.968506 0l0 40.15748l-75.968506 0z" fill-rule="nonzero"></path><path fill="#9900ff" d="m582.57117 106.26745q0 -3.46875 1.921875 -5.125q1.609375 -1.390625 3.921875 -1.390625q2.5625 0 4.1875 1.6875q1.625 1.6875 1.625 4.640625q0 2.40625 -0.71875 3.78125q-0.71875 1.375 -2.09375 2.140625q-1.375 0.765625 -3.0 0.765625q-2.625 0 -4.234375 -1.671875q-1.609375 -1.6875 -1.609375 -4.828125zm2.171875 0q0 2.390625 1.03125 3.578125q1.046875 1.1875 2.640625 1.1875q1.5625 0 2.609375 -1.1875q1.046875 -1.203125 1.046875 -3.65625q0 -2.3125 -1.0625 -3.5q-1.046875 -1.1875 -2.59375 -1.1875q-1.59375 0 -2.640625 1.1875q-1.03125 1.1875 -1.03125 3.578125zm11.957031 6.21875l0 -12.453125l1.90625 0l0 1.78125q1.375 -2.0625 3.953125 -2.0625q1.125 0 2.0625 0.40625q0.953125 0.40625 1.421875 1.0625q0.46875 0.65625 0.65625 1.5625q0.125 0.578125 0.125 2.046875l0 7.65625l-2.109375 0l0 -7.578125q0 -1.28125 -0.25 -1.921875q-0.25 -0.640625 -0.875 -1.015625q-0.625 -0.390625 -1.46875 -0.390625q-1.34375 0 -2.328125 0.859375q-0.984375 0.859375 -0.984375 3.25l0 6.796875l-2.109375 0zm21.472656 -4.5625l2.078125 0.265625q-0.34375 2.15625 -1.75 3.375q-1.390625 1.203125 -3.4375 1.203125q-2.546875 0 -4.109375 -1.671875q-1.546875 -1.671875 -1.546875 -4.78125q0 -2.015625 0.671875 -3.53125q0.671875 -1.515625 2.03125 -2.265625q1.359375 -0.765625 2.96875 -0.765625q2.03125 0 3.3125 1.03125q1.296875 1.03125 1.65625 2.90625l-2.046875 0.328125q-0.296875 -1.265625 -1.046875 -1.890625q-0.734375 -0.640625 -1.796875 -0.640625q-1.59375 0 -2.59375 1.15625q-0.984375 1.140625 -0.984375 3.609375q0 2.5 0.953125 3.640625q0.96875 1.140625 2.515625 1.140625q1.234375 0 2.0625 -0.765625q0.84375 -0.765625 1.0625 -2.34375zm12.40625 0.546875l2.171875 0.28125q-0.515625 1.90625 -1.90625 2.96875q-1.390625 1.046875 -3.5625 1.046875q-2.734375 0 -4.34375 -1.671875q-1.59375 -1.6875 -1.59375 -4.734375q0 -3.140625 1.609375 -4.875q1.625 -1.734375 4.203125 -1.734375q2.5 0 4.078125 1.703125q1.59375 1.703125 1.59375 4.78125q0 0.1875 -0.015625 0.5625l-9.28125 0q0.109375 2.046875 1.15625 3.140625q1.046875 1.09375 2.609375 1.09375q1.15625 0 1.96875 -0.609375q0.828125 -0.609375 1.3125 -1.953125zm-6.9375 -3.40625l6.953125 0q-0.140625 -1.5625 -0.796875 -2.359375q-1.0 -1.21875 -2.609375 -1.21875q-1.453125 0 -2.453125 0.984375q-0.984375 0.96875 -1.09375 2.59375z" fill-rule="nonzero"></path><path fill="#000000" fill-opacity="0.0" d="m635.60004 80.4462l34.740173 0l0 40.15748l-34.740173 0z" fill-rule="nonzero"></path><path fill="#000000" d="m654.30316 110.95495q-1.171875 0.984375 -2.265625 1.40625q-1.078125 0.40625 -2.3125 0.40625q-2.046875 0 -3.15625 -1.0q-1.09375 -1.0 -1.09375 -2.5625q0 -0.921875 0.40625 -1.671875q0.421875 -0.75 1.09375 -1.203125q0.671875 -0.46875 1.515625 -0.703125q0.625 -0.15625 1.875 -0.3125q2.5625 -0.3125 3.765625 -0.734375q0.015625 -0.421875 0.015625 -0.546875q0 -1.28125 -0.609375 -1.8125q-0.796875 -0.71875 -2.390625 -0.71875q-1.5 0 -2.203125 0.53125q-0.703125 0.515625 -1.046875 1.84375l-2.0625 -0.28125q0.28125 -1.328125 0.921875 -2.140625q0.640625 -0.8125 1.859375 -1.25q1.21875 -0.453125 2.828125 -0.453125q1.59375 0 2.59375 0.375q1.0 0.375 1.46875 0.953125q0.46875 0.5625 0.65625 1.4375q0.09375 0.53125 0.09375 1.9375l0 2.8125q0 2.9375 0.140625 3.71875q0.140625 0.78125 0.53125 1.5l-2.203125 0q-0.328125 -0.65625 -0.421875 -1.53125zm-0.171875 -4.71875q-1.15625 0.46875 -3.453125 0.796875q-1.296875 0.1875 -1.84375 0.421875q-0.53125 0.234375 -0.828125 0.6875q-0.28125 0.453125 -0.28125 1.0q0 0.84375 0.625 1.40625q0.640625 0.5625 1.875 0.5625q1.21875 0 2.171875 -0.53125q0.953125 -0.53125 1.390625 -1.453125q0.34375 -0.71875 0.34375 -2.109375l0 -0.78125z" fill-rule="nonzero"></path><path fill="#000000" fill-opacity="0.0" d="m463.11023 80.4462l80.8819 0l0 40.15748l-80.8819 0z" fill-rule="nonzero"></path><path fill="#000000" d="m473.07898 106.07995q0 -1.640625 0.796875 -3.171875q0.8125 -1.53125 2.296875 -2.34375q1.484375 -0.8125 3.3125 -0.8125q2.828125 0 4.625 1.84375q1.8125 1.828125 1.8125 4.625q0 2.828125 -1.828125 4.6875q-1.828125 1.859375 -4.59375 1.859375q-1.703125 0 -3.265625 -0.765625q-1.546875 -0.78125 -2.359375 -2.265625q-0.796875 -1.5 -0.796875 -3.65625zm3.375 0.1875q0 1.84375 0.875 2.828125q0.875 0.984375 2.171875 0.984375q1.28125 0 2.15625 -0.984375q0.875 -0.984375 0.875 -2.859375q0 -1.828125 -0.875 -2.8125q-0.875 -0.984375 -2.15625 -0.984375q-1.296875 0 -2.171875 0.984375q-0.875 0.984375 -0.875 2.84375zm15.191406 6.21875l-3.296875 0l0 -12.453125l3.0625 0l0 1.78125q0.78125 -1.265625 1.40625 -1.65625q0.640625 -0.40625 1.4375 -0.40625q1.125 0 2.15625 0.625l-1.015625 2.875q-0.828125 -0.546875 -1.546875 -0.546875q-0.6875 0 -1.171875 0.390625q-0.484375 0.375 -0.765625 1.375q-0.265625 1.0 -0.265625 4.171875l0 3.84375zm17.605469 0l-3.0625 0l0 -1.828125q-0.765625 1.0625 -1.796875 1.59375q-1.03125 0.515625 -2.09375 0.515625q-2.140625 0 -3.671875 -1.71875q-1.53125 -1.734375 -1.53125 -4.828125q0 -3.171875 1.484375 -4.8125q1.5 -1.65625 3.765625 -1.65625q2.09375 0 3.609375 1.734375l0 -6.1875l3.296875 0l0 17.1875zm-8.796875 -6.5q0 2.0 0.5625 2.890625q0.796875 1.28125 2.21875 1.28125q1.140625 0 1.9375 -0.953125q0.796875 -0.96875 0.796875 -2.890625q0 -2.15625 -0.78125 -3.09375q-0.765625 -0.9375 -1.96875 -0.9375q-1.171875 0 -1.96875 0.9375q-0.796875 0.921875 -0.796875 2.765625zm19.253906 2.53125l3.28125 0.5625q-0.640625 1.796875 -2.015625 2.75q-1.359375 0.9375 -3.40625 0.9375q-3.25 0 -4.796875 -2.125q-1.234375 -1.703125 -1.234375 -4.28125q0 -3.09375 1.609375 -4.84375q1.625 -1.765625 4.09375 -1.765625q2.78125 0 4.375 1.84375q1.609375 1.828125 1.546875 5.609375l-8.25 0q0.03125 1.46875 0.796875 2.28125q0.765625 0.8125 1.890625 0.8125q0.78125 0 1.296875 -0.421875q0.53125 -0.421875 0.8125 -1.359375zm0.1875 -3.328125q-0.046875 -1.421875 -0.75 -2.15625q-0.703125 -0.75 -1.703125 -0.75q-1.078125 0 -1.78125 0.78125q-0.703125 0.78125 -0.6875 2.125l4.921875 0zm9.097656 7.296875l-3.296875 0l0 -12.453125l3.0625 0l0 1.78125q0.78125 -1.265625 1.40625 -1.65625q0.640625 -0.40625 1.4375 -0.40625q1.125 0 2.15625 0.625l-1.015625 2.875q-0.828125 -0.546875 -1.546875 -0.546875q-0.6875 0 -1.171875 0.390625q-0.484375 0.375 -0.765625 1.375q-0.265625 1.0 -0.265625 4.171875l0 3.84375z" fill-rule="nonzero"></path><path fill="#000000" fill-opacity="0.0" d="m503.55118 80.4462c0 -32.278217 -44.496063 -64.56431 -88.99213 -64.556435c-44.496063 0.007874489 -88.99213 32.30971 -88.99213 64.61942" fill-rule="nonzero"></path><path stroke="#000000" stroke-width="2.0" stroke-linejoin="round" stroke-linecap="butt" d="m503.55118 80.4462c0 -32.278217 -44.496063 -64.56431 -88.99213 -64.556435c-22.248016 0.0039367676 -44.496063 8.081365 -61.182068 20.196522c-8.343018 6.057579 -15.295532 13.124592 -20.162292 20.696564c-2.4333801 3.7859879 -4.3453064 7.6982155 -5.6488953 11.673626c-0.32592773 0.9938507 -0.61380005 1.9916534 -0.8623047 2.9924164c-0.12423706 0.50038147 -0.23864746 1.0015106 -0.34301758 1.5032425l-0.14520264 0.73361206" fill-rule="evenodd"></path><path fill="#000000" stroke="#000000" stroke-width="2.0" stroke-linecap="butt" d="m326.21527 73.685745l-2.0263367 -2.451828l1.654541 6.3645706l2.8236084 -5.9390793z" fill-rule="evenodd"></path><path fill="#000000" fill-opacity="0.0" d="m503.55118 80.4462c0 -12.5 15.992157 -25.007877 31.984283 -25.000004c15.992126 0.007873535 31.984253 12.531498 31.984253 25.062992" fill-rule="nonzero"></path><path stroke="#000000" stroke-width="1.0" stroke-linejoin="round" stroke-linecap="butt" d="m503.55118 80.4462c0 -12.5 15.992157 -25.007877 31.984283 -25.000004c7.9960327 0.0039367676 15.992126 3.1368103 21.989136 7.83514c2.9985352 2.3491592 5.4973145 5.089691 7.24646 8.026146c0.8745117 1.4682236 1.5617065 2.9854355 2.0302734 4.527199c0.117126465 0.385437 0.22058105 0.77240753 0.3098755 1.1605377l0.023986816 0.10852814" fill-rule="evenodd"></path><path fill="#000000" stroke="#000000" stroke-width="1.0" stroke-linecap="butt" d="m567.13513 77.10374l-1.2436523 -0.99129486l1.4641724 2.9440765l0.770813 -3.1964417z" fill-rule="evenodd"></path><path fill="#000000" fill-opacity="0.0" d="m503.55118 80.4462c0 -31.216537 26.803131 -62.44095 53.606293 -62.433075c26.803162 0.0078754425 53.606323 31.248032 53.606323 62.496063" fill-rule="nonzero"></path><path stroke="#000000" stroke-width="2.0" stroke-linejoin="round" stroke-linecap="butt" d="m503.55118 80.4462c0 -31.216537 26.803131 -62.44095 53.606293 -62.433075c13.401611 0.003938675 26.803162 7.8159466 36.85437 19.532974c5.0255737 5.858513 9.213562 12.693283 12.145142 20.016422c1.4658203 3.6615715 2.6174927 7.44524 3.40271 11.290005c0.1963501 0.9611969 0.36975098 1.9262085 0.5194702 2.8940887c0.0748291 0.48394012 0.1437378 0.9685974 0.206604 1.4538498l0.057678223 0.467453" fill-rule="evenodd"></path><path fill="#000000" stroke="#000000" stroke-width="2.0" stroke-linecap="butt" d="m610.3434 73.667915l-2.3828735 -2.106987l2.6239624 6.0299606l1.8659058 -6.305847z" fill-rule="evenodd"></path><path fill="#000000" fill-opacity="0.0" d="m374.78748 80.4462c0 -8.384514 -12.307098 -16.776905 -24.614166 -16.769032c-12.307098 0.007873535 -24.614166 8.416012 -24.614166 16.83202" fill-rule="nonzero"></path><path stroke="#000000" stroke-width="1.0" stroke-linejoin="round" stroke-linecap="butt" d="m374.78748 80.4462c0 -8.384514 -12.307098 -16.776905 -24.614166 -16.769032c-12.307098 0.007873535 -24.614166 8.416012 -24.614166 16.83202" fill-rule="nonzero"></path><path fill="#000000" fill-opacity="0.0" d="m432.83203 80.4462c0 -17.410763 -26.811035 -34.8294 -53.62207 -34.821526c-26.811005 0.007873535 -53.62204 17.442257 -53.62204 34.884514" fill-rule="nonzero"></path><path stroke="#000000" stroke-width="1.0" stroke-linejoin="round" stroke-linecap="butt" d="m432.83203 80.4462c0 -17.410763 -26.811035 -34.8294 -53.62207 -34.821526c-26.811005 0.007873535 -53.62204 17.442257 -53.62204 34.884514" fill-rule="nonzero"></path><path fill="#000000" fill-opacity="0.0" d="m702.18506 80.444885c0 -30.684387 -22.858276 -61.376644 -45.716553 -61.36877c-22.858276 0.0078754425 -45.716553 30.715881 -45.716553 61.43176" fill-rule="nonzero"></path><path stroke="#000000" stroke-width="2.0" stroke-linejoin="round" stroke-linecap="butt" d="m702.18506 80.444885c0 -30.684387 -22.858276 -61.376644 -45.716553 -61.36877c-11.429138 0.003938675 -22.858276 7.682907 -31.430115 19.200378c-4.2859497 5.7587357 -7.857544 12.477097 -10.357666 19.675514c-1.250061 3.5992088 -2.2322388 7.3184395 -2.9019165 11.097729c-0.16741943 0.9448166 -0.31530762 1.8933945 -0.44299316 2.8447952c-0.06378174 0.47569275 -0.122558594 0.95210266 -0.1762085 1.4290848l-0.036376953 0.34014893" fill-rule="evenodd"></path><path fill="#000000" stroke="#000000" stroke-width="2.0" stroke-linecap="butt" d="m611.1232 73.663765l-2.1240234 -2.3676987l1.9111328 6.2922974l2.5805664 -6.0486374z" fill-rule="evenodd"></path><path fill="#000000" fill-opacity="0.0" d="m652.97015 80.4462c0 -12.500656 12.307068 -25.00919 24.614136 -25.001316c12.307068 0.007873535 24.614197 12.532154 24.614197 25.064304" fill-rule="nonzero"></path><path stroke="#000000" stroke-width="1.0" stroke-linejoin="round" stroke-linecap="butt" d="m652.97015 80.4462c0 -12.500656 12.307068 -25.00919 24.614136 -25.001316c6.1535645 0.0039367676 12.307129 3.1369743 16.922302 7.8355484c2.3075562 2.3492851 4.23053 5.0899544 5.576599 8.026562c0.67303467 1.4683075 1.2019043 2.9855957 1.5625 4.5274353c0.090148926 0.3854599 0.16967773 0.7724533 0.23840332 1.1606064l0.016967773 0.099990845" fill-rule="evenodd"></path><path fill="#000000" stroke="#000000" stroke-width="1.0" stroke-linecap="butt" d="m701.9011 77.095024l-1.2179565 -1.0227585l1.3884888 2.9805298l0.8522339 -3.1756897z" fill-rule="evenodd"></path><path fill="#000000" fill-opacity="0.0" d="m421.7874 181.54855l163.52753 0l0 49.291336l-163.52753 0z" fill-rule="nonzero"></path><path fill="#9900ff" d="m432.0843 212.2498l0 -17.375l3.671875 0l0 1.375l-2.015625 0l0 14.609375l2.015625 0l0 1.390625l-3.671875 0zm5.4020386 -3.78125l0 -13.59375l1.8125 0l0 5.578125l7.0625 0l0 -5.578125l1.796875 0l0 13.59375l-1.796875 0l0 -6.40625l-7.0625 0l0 6.40625l-1.8125 0zm19.957336 -3.171875l1.71875 0.21875q-0.40625 1.5 -1.515625 2.34375q-1.09375 0.828125 -2.8125 0.828125q-2.15625 0 -3.421875 -1.328125q-1.265625 -1.328125 -1.265625 -3.734375q0 -2.484375 1.265625 -3.859375q1.28125 -1.375 3.328125 -1.375q1.984375 0 3.234375 1.34375q1.25 1.34375 1.25 3.796875q0 0.140625 -0.015625 0.4375l-7.34375 0q0.09375 1.625 0.921875 2.484375q0.828125 0.859375 2.0625 0.859375q0.90625 0 1.546875 -0.46875q0.65625 -0.484375 1.046875 -1.546875zm-5.484375 -2.703125l5.5 0q-0.109375 -1.234375 -0.625 -1.859375q-0.796875 -0.96875 -2.078125 -0.96875q-1.140625 0 -1.9375 0.78125q-0.78125 0.765625 -0.859375 2.046875zm9.547577 5.875l0 -1.90625l1.90625 0l0 1.90625q0 1.046875 -0.375 1.6875q-0.375 0.65625 -1.171875 1.0l-0.46875 -0.71875q0.53125 -0.21875 0.78125 -0.671875q0.25 -0.453125 0.28125 -1.296875l-0.953125 0zm9.304108 -4.921875q0 -2.734375 1.53125 -4.0625q1.265625 -1.09375 3.09375 -1.09375q2.03125 0 3.3125 1.34375q1.296875 1.328125 1.296875 3.671875q0 1.90625 -0.578125 3.0q-0.5625 1.078125 -1.65625 1.6875q-1.078125 0.59375 -2.375 0.59375q-2.0625 0 -3.34375 -1.328125q-1.28125 -1.328125 -1.28125 -3.8125zm1.71875 0q0 1.890625 0.828125 2.828125q0.828125 0.9375 2.078125 0.9375q1.25 0 2.0625 -0.9375q0.828125 -0.953125 0.828125 -2.890625q0 -1.828125 -0.828125 -2.765625q-0.828125 -0.9375 -2.0625 -0.9375q-1.25 0 -2.078125 0.9375q-0.828125 0.9375 -0.828125 2.828125zm9.281982 4.921875l0 -9.859375l1.5 0l0 1.40625q1.09375 -1.625 3.140625 -1.625q0.890625 0 1.640625 0.328125q0.75 0.3125 1.109375 0.84375q0.375 0.515625 0.53125 1.21875q0.09375 0.46875 0.09375 1.625l0 6.0625l-1.671875 0l0 -6.0q0 -1.015625 -0.203125 -1.515625q-0.1875 -0.515625 -0.6875 -0.8125q-0.5 -0.296875 -1.171875 -0.296875q-1.0625 0 -1.84375 0.671875q-0.765625 0.671875 -0.765625 2.578125l0 5.375l-1.671875 0zm16.813202 -3.609375l1.640625 0.21875q-0.265625 1.6875 -1.375 2.65625q-1.109375 0.953125 -2.734375 0.953125q-2.015625 0 -3.25 -1.3125q-1.21875 -1.328125 -1.21875 -3.796875q0 -1.59375 0.515625 -2.78125q0.53125 -1.203125 1.609375 -1.796875q1.09375 -0.609375 2.359375 -0.609375q1.609375 0 2.625 0.8125q1.015625 0.8125 1.3125 2.3125l-1.625 0.25q-0.234375 -1.0 -0.828125 -1.5q-0.59375 -0.5 -1.421875 -0.5q-1.265625 0 -2.0625 0.90625q-0.78125 0.90625 -0.78125 2.859375q0 1.984375 0.765625 2.890625q0.765625 0.890625 1.984375 0.890625q0.984375 0 1.640625 -0.59375q0.65625 -0.609375 0.84375 -1.859375zm9.640625 0.4375l1.71875 0.21875q-0.40625 1.5 -1.515625 2.34375q-1.09375 0.828125 -2.8125 0.828125q-2.15625 0 -3.421875 -1.328125q-1.265625 -1.328125 -1.265625 -3.734375q0 -2.484375 1.265625 -3.859375q1.28125 -1.375 3.328125 -1.375q1.984375 0 3.234375 1.34375q1.25 1.34375 1.25 3.796875q0 0.140625 -0.015625 0.4375l-7.34375 0q0.09375 1.625 0.921875 2.484375q0.828125 0.859375 2.0625 0.859375q0.90625 0 1.546875 -0.46875q0.65625 -0.484375 1.046875 -1.546875zm-5.484375 -2.703125l5.5 0q-0.109375 -1.234375 -0.625 -1.859375q-0.796875 -0.96875 -2.078125 -0.96875q-1.140625 0 -1.9375 0.78125q-0.78125 0.765625 -0.859375 2.046875zm9.547577 5.875l0 -1.90625l1.90625 0l0 1.90625q0 1.046875 -0.375 1.6875q-0.375 0.65625 -1.171875 1.0l-0.46875 -0.71875q0.53125 -0.21875 0.78125 -0.671875q0.25 -0.453125 0.28125 -1.296875l-0.953125 0zm11.757263 0l-3.015625 -9.859375l1.71875 0l1.5625 5.6875l0.59375 2.125q0.03125 -0.15625 0.5 -2.03125l1.578125 -5.78125l1.71875 0l1.46875 5.71875l0.484375 1.890625l0.578125 -1.90625l1.6875 -5.703125l1.625 0l-3.078125 9.859375l-1.734375 0l-1.578125 -5.90625l-0.375 -1.671875l-2.0 7.578125l-1.734375 0zm18.394836 -3.171875l1.71875 0.21875q-0.40625 1.5 -1.515625 2.34375q-1.09375 0.828125 -2.8125 0.828125q-2.15625 0 -3.421875 -1.328125q-1.265625 -1.328125 -1.265625 -3.734375q0 -2.484375 1.265625 -3.859375q1.28125 -1.375 3.328125 -1.375q1.984375 0 3.234375 1.34375q1.25 1.34375 1.25 3.796875q0 0.140625 -0.015625 0.4375l-7.34375 0q0.09375 1.625 0.921875 2.484375q0.828125 0.859375 2.0625 0.859375q0.90625 0 1.546875 -0.46875q0.65625 -0.484375 1.046875 -1.546875zm-5.484375 -2.703125l5.5 0q-0.109375 -1.234375 -0.625 -1.859375q-0.796875 -0.96875 -2.078125 -0.96875q-1.140625 0 -1.9375 0.78125q-0.78125 0.765625 -0.859375 2.046875zm15.860046 2.703125l1.71875 0.21875q-0.40625 1.5 -1.515625 2.34375q-1.09375 0.828125 -2.8125 0.828125q-2.15625 0 -3.421875 -1.328125q-1.265625 -1.328125 -1.265625 -3.734375q0 -2.484375 1.265625 -3.859375q1.28125 -1.375 3.328125 -1.375q1.984375 0 3.234375 1.34375q1.25 1.34375 1.25 3.796875q0 0.140625 -0.015625 0.4375l-7.34375 0q0.09375 1.625 0.921875 2.484375q0.828125 0.859375 2.0625 0.859375q0.90625 0 1.546875 -0.46875q0.65625 -0.484375 1.046875 -1.546875zm-5.484375 -2.703125l5.5 0q-0.109375 -1.234375 -0.625 -1.859375q-0.796875 -0.96875 -2.078125 -0.96875q-1.140625 0 -1.9375 0.78125q-0.78125 0.765625 -0.859375 2.046875zm9.125732 5.875l0 -13.59375l1.671875 0l0 7.75l3.953125 -4.015625l2.15625 0l-3.765625 3.65625l4.140625 6.203125l-2.0625 0l-3.25 -5.03125l-1.171875 1.125l0 3.90625l-1.671875 0zm12.109375 3.78125l-3.6875 0l0 -1.390625l2.015625 0l0 -14.609375l-2.015625 0l0 -1.375l3.6875 0l0 17.375z" fill-rule="nonzero"></path><path fill="#000000" fill-opacity="0.0" d="m503.55118 120.603676c0 15.236214 0.01574707 22.854332 0.03149414 30.472435c0.01574707 7.6181183 0.03149414 15.236221 0.03149414 30.472443" fill-rule="nonzero"></path><path stroke="#9900ff" stroke-width="1.0" stroke-linejoin="round" stroke-linecap="butt" d="m503.55118 120.603676c0 15.236214 0.01574707 22.854332 0.03149414 30.472435c0.007873535 3.8090668 0.01574707 7.6181183 0.02166748 12.37944c0.0029296875 2.3806458 0.0054016113 4.9993744 0.0071411133 7.9752045l0.0018005371 6.6907196" fill-rule="evenodd"></path><path fill="#9900ff" stroke="#9900ff" stroke-width="1.0" stroke-linecap="butt" d="m503.61325 178.12148l-1.1248779 -1.1242828l1.1253967 3.0894623l1.1237793 -3.0900726z" fill-rule="evenodd"></path><path fill="#000000" fill-opacity="0.0" d="m509.3832 133.6273l107.24411 0l0 34.89763l-107.24411 0z" fill-rule="nonzero"></path><path fill="#9900ff" d="m520.1019 160.5473l0 -1.90625l1.90625 0l0 1.90625l-1.90625 0zm11.1521 -3.609375l1.640625 0.21875q-0.265625 1.6875 -1.375 2.65625q-1.109375 0.953125 -2.734375 0.953125q-2.015625 0 -3.25 -1.3125q-1.21875 -1.328125 -1.21875 -3.796875q0 -1.59375 0.515625 -2.78125q0.53125 -1.203125 1.609375 -1.796875q1.09375 -0.609375 2.359375 -0.609375q1.609375 0 2.625 0.8125q1.015625 0.8125 1.3125 2.3125l-1.625 0.25q-0.234375 -1.0 -0.828125 -1.5q-0.59375 -0.5 -1.421875 -0.5q-1.265625 0 -2.0625 0.90625q-0.78125 0.90625 -0.78125 2.859375q0 1.984375 0.765625 2.890625q0.765625 0.890625 1.984375 0.890625q0.984375 0 1.640625 -0.59375q0.65625 -0.609375 0.84375 -1.859375zm2.890625 3.609375l0 -13.59375l1.671875 0l0 4.875q1.171875 -1.359375 2.953125 -1.359375q1.09375 0 1.890625 0.4375q0.8125 0.421875 1.15625 1.1875q0.359375 0.765625 0.359375 2.203125l0 6.25l-1.671875 0l0 -6.25q0 -1.25 -0.546875 -1.8125q-0.546875 -0.578125 -1.53125 -0.578125q-0.75 0 -1.40625 0.390625q-0.640625 0.375 -0.921875 1.046875q-0.28125 0.65625 -0.28125 1.8125l0 5.390625l-1.671875 0zm10.391296 -11.6875l0 -1.90625l1.671875 0l0 1.90625l-1.671875 0zm0 11.6875l0 -9.859375l1.671875 0l0 9.859375l-1.671875 0zm4.0979614 0l0 -13.59375l1.671875 0l0 13.59375l-1.671875 0zm10.566711 0l0 -1.25q-0.9375 1.46875 -2.75 1.46875q-1.171875 0 -2.171875 -0.640625q-0.984375 -0.65625 -1.53125 -1.8125q-0.53125 -1.171875 -0.53125 -2.6875q0 -1.46875 0.484375 -2.671875q0.5 -1.203125 1.46875 -1.84375q0.984375 -0.640625 2.203125 -0.640625q0.890625 0 1.578125 0.375q0.703125 0.375 1.140625 0.984375l0 -4.875l1.65625 0l0 13.59375l-1.546875 0zm-5.28125 -4.921875q0 1.890625 0.796875 2.828125q0.8125 0.9375 1.890625 0.9375q1.09375 0 1.859375 -0.890625q0.765625 -0.890625 0.765625 -2.734375q0 -2.015625 -0.78125 -2.953125q-0.78125 -0.953125 -1.921875 -0.953125q-1.109375 0 -1.859375 0.90625q-0.75 0.90625 -0.75 2.859375zm9.250732 4.921875l0 -9.859375l1.5 0l0 1.5q0.578125 -1.046875 1.0625 -1.375q0.484375 -0.34375 1.078125 -0.34375q0.84375 0 1.71875 0.546875l-0.578125 1.546875q-0.609375 -0.359375 -1.234375 -0.359375q-0.546875 0 -0.984375 0.328125q-0.421875 0.328125 -0.609375 0.90625q-0.28125 0.890625 -0.28125 1.953125l0 5.15625l-1.671875 0zm12.9782715 -3.171875l1.71875 0.21875q-0.40625 1.5 -1.515625 2.34375q-1.09375 0.828125 -2.8125 0.828125q-2.15625 0 -3.421875 -1.328125q-1.265625 -1.328125 -1.265625 -3.734375q0 -2.484375 1.265625 -3.859375q1.28125 -1.375 3.328125 -1.375q1.984375 0 3.234375 1.34375q1.25 1.34375 1.25 3.796875q0 0.140625 -0.015625 0.4375l-7.34375 0q0.09375 1.625 0.921875 2.484375q0.828125 0.859375 2.0625 0.859375q0.90625 0 1.546875 -0.46875q0.65625 -0.484375 1.046875 -1.546875zm-5.484375 -2.703125l5.5 0q-0.109375 -1.234375 -0.625 -1.859375q-0.796875 -0.96875 -2.078125 -0.96875q-1.140625 0 -1.9375 0.78125q-0.78125 0.765625 -0.859375 2.046875zm9.110107 5.875l0 -9.859375l1.5 0l0 1.40625q1.09375 -1.625 3.140625 -1.625q0.890625 0 1.640625 0.328125q0.75 0.3125 1.109375 0.84375q0.375 0.515625 0.53125 1.21875q0.09375 0.46875 0.09375 1.625l0 6.0625l-1.671875 0l0 -6.0q0 -1.015625 -0.203125 -1.515625q-0.1875 -0.515625 -0.6875 -0.8125q-0.5 -0.296875 -1.171875 -0.296875q-1.0625 0 -1.84375 0.671875q-0.765625 0.671875 -0.765625 2.578125l0 5.375l-1.671875 0z" fill-rule="nonzero"></path></g></svg>

