<?xml version="1.0" standalone="yes"?>

<svg version="1.1" viewBox="0.0 0.0 710.1391076115485 132.90551181102362" fill="none" stroke="none" stroke-linecap="square" stroke-miterlimit="10" xmlns="http://www.w3.org/2000/svg" xmlns:xlink="http://www.w3.org/1999/xlink"><clipPath id="p.0"><path d="m0 0l710.1391 0l0 132.90552l-710.1391 0l0 -132.90552z" clip-rule="nonzero"></path></clipPath><g clip-path="url(#p.0)"><path fill="#000000" fill-opacity="0.0" d="m0 0l710.1391 0l0 132.90552l-710.1391 0z" fill-rule="nonzero"></path><path fill="#cfe2f3" d="m201.07742 43.603676l89.480316 0l0 31.779526l-89.480316 0z" fill-rule="nonzero"></path><path stroke="#000000" stroke-width="1.0" stroke-linejoin="round" stroke-linecap="butt" d="m201.07742 43.603676l89.480316 0l0 31.779526l-89.480316 0z" fill-rule="nonzero"></path><path fill="#000000" d="m211.54617 66.41344l0 -13.59375l5.125 0q1.359375 0 2.078125 0.125q1.0 0.171875 1.671875 0.640625q0.671875 0.46875 1.078125 1.3125q0.421875 0.84375 0.421875 1.84375q0 1.734375 -1.109375 2.9375q-1.09375 1.203125 -3.984375 1.203125l-3.484375 0l0 5.53125l-1.796875 0zm1.796875 -7.140625l3.515625 0q1.75 0 2.46875 -0.640625q0.734375 -0.65625 0.734375 -1.828125q0 -0.859375 -0.4375 -1.46875q-0.421875 -0.609375 -1.125 -0.796875q-0.453125 -0.125 -1.671875 -0.125l-3.484375 0l0 4.859375zm16.865448 5.921875q-0.9375 0.796875 -1.796875 1.125q-0.859375 0.3125 -1.84375 0.3125q-1.609375 0 -2.484375 -0.78125q-0.875 -0.796875 -0.875 -2.03125q0 -0.734375 0.328125 -1.328125q0.328125 -0.59375 0.859375 -0.953125q0.53125 -0.359375 1.203125 -0.546875q0.5 -0.140625 1.484375 -0.25q2.03125 -0.25 2.984375 -0.578125q0 -0.34375 0 -0.4375q0 -1.015625 -0.46875 -1.4375q-0.640625 -0.5625 -1.90625 -0.5625q-1.171875 0 -1.734375 0.40625q-0.5625 0.40625 -0.828125 1.46875l-1.640625 -0.234375q0.234375 -1.046875 0.734375 -1.6875q0.515625 -0.640625 1.46875 -0.984375q0.96875 -0.359375 2.25 -0.359375q1.265625 0 2.046875 0.296875q0.78125 0.296875 1.15625 0.75q0.375 0.453125 0.515625 1.140625q0.09375 0.421875 0.09375 1.53125l0 2.234375q0 2.328125 0.09375 2.953125q0.109375 0.609375 0.4375 1.171875l-1.75 0q-0.265625 -0.515625 -0.328125 -1.21875zm-0.140625 -3.71875q-0.90625 0.359375 -2.734375 0.625q-1.03125 0.140625 -1.453125 0.328125q-0.421875 0.1875 -0.65625 0.546875q-0.234375 0.359375 -0.234375 0.796875q0 0.671875 0.5 1.125q0.515625 0.4375 1.484375 0.4375q0.96875 0 1.71875 -0.421875q0.75 -0.4375 1.109375 -1.15625q0.265625 -0.578125 0.265625 -1.671875l0 -0.609375zm4.063217 4.9375l0 -9.859375l1.5 0l0 1.5q0.578125 -1.046875 1.0625 -1.375q0.484375 -0.34375 1.078125 -0.34375q0.84375 0 1.71875 0.546875l-0.578125 1.546875q-0.609375 -0.359375 -1.234375 -0.359375q-0.546875 0 -0.984375 0.328125q-0.421875 0.328125 -0.609375 0.90625q-0.28125 0.890625 -0.28125 1.953125l0 5.15625l-1.671875 0zm5.556427 -2.9375l1.65625 -0.265625q0.140625 1.0 0.765625 1.53125q0.640625 0.515625 1.78125 0.515625q1.15625 0 1.703125 -0.46875q0.5625 -0.46875 0.5625 -1.09375q0 -0.5625 -0.484375 -0.890625q-0.34375 -0.21875 -1.703125 -0.5625q-1.84375 -0.46875 -2.5625 -0.796875q-0.703125 -0.34375 -1.078125 -0.9375q-0.359375 -0.609375 -0.359375 -1.328125q0 -0.65625 0.296875 -1.21875q0.3125 -0.5625 0.828125 -0.9375q0.390625 -0.28125 1.0625 -0.484375q0.671875 -0.203125 1.4375 -0.203125q1.171875 0 2.046875 0.34375q0.875 0.328125 1.28125 0.90625q0.421875 0.5625 0.578125 1.515625l-1.625 0.21875q-0.109375 -0.75 -0.65625 -1.171875q-0.53125 -0.4375 -1.5 -0.4375q-1.15625 0 -1.640625 0.390625q-0.484375 0.375 -0.484375 0.875q0 0.328125 0.203125 0.59375q0.203125 0.265625 0.640625 0.4375q0.25 0.09375 1.46875 0.4375q1.765625 0.46875 2.46875 0.765625q0.703125 0.296875 1.09375 0.875q0.40625 0.578125 0.40625 1.4375q0 0.828125 -0.484375 1.578125q-0.484375 0.734375 -1.40625 1.140625q-0.921875 0.390625 -2.078125 0.390625q-1.921875 0 -2.9375 -0.796875q-1.0 -0.796875 -1.28125 -2.359375zm10.015625 -8.75l0 -1.90625l1.671875 0l0 1.90625l-1.671875 0zm0 11.6875l0 -9.859375l1.671875 0l0 9.859375l-1.671875 0zm4.129196 0l0 -9.859375l1.5 0l0 1.40625q1.09375 -1.625 3.140625 -1.625q0.890625 0 1.640625 0.328125q0.75 0.3125 1.109375 0.84375q0.375 0.515625 0.53125 1.21875q0.09375 0.46875 0.09375 1.625l0 6.0625l-1.671875 0l0 -6.0q0 -1.015625 -0.203125 -1.515625q-0.1875 -0.515625 -0.6875 -0.8125q-0.5 -0.296875 -1.171875 -0.296875q-1.0625 0 -1.84375 0.671875q-0.765625 0.671875 -0.765625 2.578125l0 5.375l-1.671875 0zm10.078857 0.8125l1.609375 0.25q0.109375 0.75 0.578125 1.09375q0.609375 0.453125 1.6875 0.453125q1.171875 0 1.796875 -0.46875q0.625 -0.453125 0.859375 -1.28125q0.125 -0.515625 0.109375 -2.15625q-1.09375 1.296875 -2.71875 1.296875q-2.03125 0 -3.15625 -1.46875q-1.109375 -1.46875 -1.109375 -3.515625q0 -1.40625 0.515625 -2.59375q0.515625 -1.203125 1.484375 -1.84375q0.96875 -0.65625 2.265625 -0.65625q1.75 0 2.875 1.40625l0 -1.1875l1.546875 0l0 8.515625q0 2.3125 -0.46875 3.265625q-0.46875 0.96875 -1.484375 1.515625q-1.015625 0.5625 -2.5 0.5625q-1.765625 0 -2.859375 -0.796875q-1.078125 -0.796875 -1.03125 -2.390625zm1.375 -5.921875q0 1.953125 0.765625 2.84375q0.78125 0.890625 1.9375 0.890625q1.140625 0 1.921875 -0.890625q0.78125 -0.890625 0.78125 -2.78125q0 -1.8125 -0.8125 -2.71875q-0.796875 -0.921875 -1.921875 -0.921875q-1.109375 0 -1.890625 0.90625q-0.78125 0.890625 -0.78125 2.671875z" fill-rule="nonzero"></path><path fill="#cfe2f3" d="m314.29004 43.603676l37.858246 0l0 31.779526l-37.858246 0z" fill-rule="nonzero"></path><path stroke="#000000" stroke-width="1.0" stroke-linejoin="round" stroke-linecap="butt" d="m314.29004 43.603676l37.858246 0l0 31.779526l-37.858246 0z" fill-rule="nonzero"></path><path fill="#000000" d="m324.55566 54.725937l0 -1.90625l1.671875 0l0 1.90625l-1.671875 0zm0 11.6875l0 -9.859375l1.671875 0l0 9.859375l-1.671875 0zm3.457306 -2.9375l1.65625 -0.265625q0.140625 1.0 0.765625 1.53125q0.640625 0.515625 1.78125 0.515625q1.15625 0 1.703125 -0.46875q0.5625 -0.46875 0.5625 -1.09375q0 -0.5625 -0.484375 -0.890625q-0.34375 -0.21875 -1.703125 -0.5625q-1.84375 -0.46875 -2.5625 -0.796875q-0.703125 -0.34375 -1.078125 -0.9375q-0.359375 -0.609375 -0.359375 -1.328125q0 -0.65625 0.296875 -1.21875q0.3125 -0.5625 0.828125 -0.9375q0.390625 -0.28125 1.0625 -0.484375q0.671875 -0.203125 1.4375 -0.203125q1.171875 0 2.046875 0.34375q0.875 0.328125 1.28125 0.90625q0.421875 0.5625 0.578125 1.515625l-1.625 0.21875q-0.109375 -0.75 -0.65625 -1.171875q-0.53125 -0.4375 -1.5 -0.4375q-1.15625 0 -1.640625 0.390625q-0.484375 0.375 -0.484375 0.875q0 0.328125 0.203125 0.59375q0.203125 0.265625 0.640625 0.4375q0.25 0.09375 1.46875 0.4375q1.765625 0.46875 2.46875 0.765625q0.703125 0.296875 1.09375 0.875q0.40625 0.578125 0.40625 1.4375q0 0.828125 -0.484375 1.578125q-0.484375 0.734375 -1.40625 1.140625q-0.921875 0.390625 -2.078125 0.390625q-1.921875 0 -2.9375 -0.796875q-1.0 -0.796875 -1.28125 -2.359375z" fill-rule="nonzero"></path><path fill="#cfe2f3" d="m375.88058 43.603676l50.740143 0l0 31.779526l-50.740143 0z" fill-rule="nonzero"></path><path stroke="#000000" stroke-width="1.0" stroke-linejoin="round" stroke-linecap="butt" d="m375.88058 43.603676l50.740143 0l0 31.779526l-50.740143 0z" fill-rule="nonzero"></path><path fill="#000000" d="m386.53683 66.41344l0 -8.546875l-1.484375 0l0 -1.3125l1.484375 0l0 -1.046875q0 -0.984375 0.171875 -1.46875q0.234375 -0.65625 0.84375 -1.046875q0.609375 -0.40625 1.703125 -0.40625q0.703125 0 1.5625 0.15625l-0.25 1.46875q-0.515625 -0.09375 -0.984375 -0.09375q-0.765625 0 -1.078125 0.328125q-0.3125 0.3125 -0.3125 1.203125l0 0.90625l1.921875 0l0 1.3125l-1.921875 0l0 8.546875l-1.65625 0zm11.230164 0l0 -1.453125q-1.140625 1.671875 -3.125 1.671875q-0.859375 0 -1.625 -0.328125q-0.75 -0.34375 -1.125 -0.84375q-0.359375 -0.5 -0.515625 -1.234375q-0.09375 -0.5 -0.09375 -1.5625l0 -6.109375l1.671875 0l0 5.46875q0 1.3125 0.09375 1.765625q0.15625 0.65625 0.671875 1.03125q0.515625 0.375 1.265625 0.375q0.75 0 1.40625 -0.375q0.65625 -0.390625 0.921875 -1.046875q0.28125 -0.671875 0.28125 -1.9375l0 -5.28125l1.671875 0l0 9.859375l-1.5 0zm3.9226074 0l0 -9.859375l1.5 0l0 1.40625q1.09375 -1.625 3.140625 -1.625q0.890625 0 1.640625 0.328125q0.75 0.3125 1.109375 0.84375q0.375 0.515625 0.53125 1.21875q0.09375 0.46875 0.09375 1.625l0 6.0625l-1.671875 0l0 -6.0q0 -1.015625 -0.203125 -1.515625q-0.1875 -0.515625 -0.6875 -0.8125q-0.5 -0.296875 -1.171875 -0.296875q-1.0625 0 -1.84375 0.671875q-0.765625 0.671875 -0.765625 2.578125l0 5.375l-1.671875 0z" fill-rule="nonzero"></path><path fill="#cfe2f3" d="m450.35303 43.603676l58.70865 0l0 31.779526l-58.70865 0z" fill-rule="nonzero"></path><path stroke="#000000" stroke-width="1.0" stroke-linejoin="round" stroke-linecap="butt" d="m450.35303 43.603676l58.70865 0l0 31.779526l-58.70865 0z" fill-rule="nonzero"></path><path fill="#000000" d="m460.30615 66.64781l0.8125 -3.953125l-1.578125 0l0 -1.390625l1.859375 0l0.6875 -3.359375l-2.546875 0l0 -1.390625l2.8125 0l0.8125 -3.96875l1.390625 0l-0.8125 3.96875l2.921875 0l0.8125 -3.96875l1.40625 0l-0.8125 3.96875l1.609375 0l0 1.390625l-1.890625 0l-0.6875 3.359375l2.578125 0l0 1.390625l-2.859375 0l-0.8125 3.953125l-1.390625 0l0.796875 -3.953125l-2.90625 0l-0.8125 3.953125l-1.390625 0zm2.484375 -5.34375l2.90625 0l0.703125 -3.359375l-2.921875 0l-0.6875 3.359375zm8.188202 5.109375l0 -9.859375l1.5 0l0 1.40625q1.09375 -1.625 3.140625 -1.625q0.890625 0 1.640625 0.328125q0.75 0.3125 1.109375 0.84375q0.375 0.515625 0.53125 1.21875q0.09375 0.46875 0.09375 1.625l0 6.0625l-1.671875 0l0 -6.0q0 -1.015625 -0.203125 -1.515625q-0.1875 -0.515625 -0.6875 -0.8125q-0.5 -0.296875 -1.171875 -0.296875q-1.0625 0 -1.84375 0.671875q-0.765625 0.671875 -0.765625 2.578125l0 5.375l-1.671875 0zm10.344482 0l0 -13.59375l1.671875 0l0 13.59375l-1.671875 0zm4.176056 3.78125l0 -13.640625l1.53125 0l0 1.28125q0.53125 -0.75 1.203125 -1.125q0.6875 -0.375 1.640625 -0.375q1.265625 0 2.234375 0.65625q0.96875 0.640625 1.453125 1.828125q0.5 1.1875 0.5 2.59375q0 1.515625 -0.546875 2.734375q-0.546875 1.203125 -1.578125 1.84375q-1.03125 0.640625 -2.171875 0.640625q-0.84375 0 -1.515625 -0.34375q-0.65625 -0.359375 -1.078125 -0.890625l0 4.796875l-1.671875 0zm1.515625 -8.65625q0 1.90625 0.765625 2.8125q0.78125 0.90625 1.875 0.90625q1.109375 0 1.890625 -0.9375q0.796875 -0.9375 0.796875 -2.921875q0 -1.875 -0.78125 -2.8125q-0.765625 -0.9375 -1.84375 -0.9375q-1.0625 0 -1.890625 1.0q-0.8125 1.0 -0.8125 2.890625z" fill-rule="nonzero"></path><path fill="#000000" fill-opacity="0.0" d="m334.95862 42.060898c-5.106476 -3.5984344 -21.11435 -17.515274 -30.638824 -21.590607c-9.524475 -4.0753345 -18.309296 -4.4103947 -26.508026 -2.861393c-8.19873 1.5490017 -17.115051 7.8793564 -22.684418 12.155403c-5.5693817 4.2760468 -8.943207 11.250725 -10.731857 13.50087" fill-rule="nonzero"></path><path stroke="#000000" stroke-width="1.0" stroke-linejoin="round" stroke-linecap="butt" d="m334.9586 42.060894c-5.1064453 -3.5984306 -21.114319 -17.51527 -30.638794 -21.590603c-9.524475 -4.0753345 -18.309265 -4.4103947 -26.508026 -2.861393c-8.19873 1.5490017 -17.115051 7.8793583 -22.684433 12.155401c-2.7846985 2.1380234 -5.0204773 4.9507046 -6.7836914 7.510149c-0.4407959 0.63986206 -0.85206604 1.263897 -1.2349854 1.8576012c-0.19145203 0.29685593 -0.37583923 0.58612823 -0.55326843 0.86600876l-0.26153564 0.41384506" fill-rule="evenodd"></path><path fill="#000000" stroke="#000000" stroke-width="1.0" stroke-linecap="butt" d="m246.29387 40.411903l-0.3133545 -1.559227l-0.7752228 3.1953697l2.6477966 -1.9494972z" fill-rule="evenodd"></path><path fill="#000000" fill-opacity="0.0" d="m334.96045 41.865242c4.4797974 -3.5906258 18.726807 -17.313238 26.878723 -21.54377c8.151947 -4.2305317 15.406311 -4.929199 22.032867 -3.8394222c6.626587 1.089777 13.474213 6.6215706 17.726593 10.378082c4.25235 3.7565136 6.4896545 10.134161 7.7875977 12.160994" fill-rule="nonzero"></path><path stroke="#000000" stroke-width="1.0" stroke-linejoin="round" stroke-linecap="butt" d="m334.96048 41.865242c4.479767 -3.5906296 18.726776 -17.313238 26.878723 -21.54377c8.151886 -4.2305336 15.4062805 -4.929199 22.032837 -3.8394222c6.6265564 1.089777 13.474213 6.6215706 17.726593 10.378084c2.1261902 1.8782539 3.7485962 4.4117966 5.001709 6.729126c0.31329346 0.57933044 0.6034851 1.1451492 0.8727112 1.6838379l0.34597778 0.7002716" fill-rule="evenodd"></path><path fill="#000000" stroke="#000000" stroke-width="1.0" stroke-linecap="butt" d="m407.81903 35.97337l-1.5143738 -0.48583603l2.4130554 2.2335014l-0.4128418 -3.262043z" fill-rule="evenodd"></path><path fill="#000000" fill-opacity="0.0" d="m466.3058 10.834645l26.803131 0l0 22.834648l-26.803131 0z" fill-rule="nonzero"></path><path fill="#000000" d="m479.6808 34.410892q0 -0.34375 0 -0.5q0 -0.984375 0.265625 -1.703125q0.21875 -0.5468731 0.671875 -1.0937481q0.328125 -0.390625 1.1875 -1.15625q0.875 -0.765625 1.125 -1.21875q0.265625 -0.453125 0.265625 -1.0q0 -0.96875 -0.765625 -1.703125q-0.75 -0.734375 -1.859375 -0.734375q-1.0625 0 -1.78125 0.671875q-0.703125 0.65625 -0.9375 2.078125l-1.71875 -0.203125q0.234375 -1.90625 1.375 -2.90625q1.15625 -1.015625 3.03125 -1.015625q2.0 0 3.1875 1.09375q1.1875 1.078125 1.1875 2.609375q0 0.890625 -0.421875 1.640625q-0.40625 0.75 -1.625 1.828125q-0.8125 0.734375 -1.0625 1.0781231q-0.25 0.34375 -0.375 0.796875q-0.125 0.4375 -0.140625 1.4375l-1.609375 0zm-0.09375 3.34375l0 -1.90625l1.890625 0l0 1.90625l-1.890625 0z" fill-rule="nonzero"></path></g></svg>

